Coordinates
version=1
nRows=11
nColumns=40
inDegrees=yes

Units are S.I. units (second, meters, Newtons, ...)
Angles are in degrees.

endheader
time	pelvis_tilt	pelvis_list	pelvis_rotation	pelvis_tx	pelvis_ty	pelvis_tz	hip_flexion_r	hip_adduction_r	hip_rotation_r	knee_angle_r	knee_angle_r_beta	ankle_angle_r	subtalar_angle_r	mtp_angle_r	hip_flexion_l	hip_adduction_l	hip_rotation_l	knee_angle_l	knee_angle_l_beta	ankle_angle_l	subtalar_angle_l	mtp_angle_l	lumbar_extension	lumbar_bending	lumbar_rotation	arm_flex_r	arm_add_r	arm_rot_r	elbow_flex_r	pro_sup_r	wrist_flex_r	wrist_dev_r	arm_flex_l	arm_add_l	arm_rot_l	elbow_flex_l	pro_sup_l	wrist_flex_l	wrist_dev_l
     28.84000000	     -3.95458014	     -4.70054759	     -2.17796852	      1.09675358	      0.92109713	      0.56608180	     15.44186976	      5.95946961	     -6.85102884	     24.88127716	     24.88127716	     14.76256391	     -7.38455731	     -1.65792564	     20.68344486	    -15.26452136	      1.05318193	     57.11447424	     57.11447424	      5.63980607	    -15.77543348	     -1.24904553	    -10.02539259	      6.82844764	     -1.57308616	      0.25877612	    -16.04645834	     -6.59527289	     38.97270793	     44.37686751	      0.00000000	      0.00000000	     20.47797499	    -12.64704486	     -0.35257369	     52.57587017	     44.70332154	      0.00000000	      0.00000000
     28.86192857	     -3.61572159	     -4.74107112	     -1.31311881	      1.09564463	      0.91807474	      0.56799192	     15.93776521	      6.18227180	     -6.56126845	     26.85342149	     26.85342149	     15.54677456	     -9.70850125	     -1.29472767	     22.94605223	    -14.96993977	      2.78577393	     60.39258814	     60.39258814	      5.09186880	    -17.06056702	      1.05934376	    -10.29386249	      6.45695975	     -1.46245548	      2.85879959	    -16.06969027	     -6.62025711	     40.83589692	     44.41784063	      0.00000000	      0.00000000	     18.30433259	    -11.59088865	      0.14467480	     47.53461055	     44.77210519	      0.00000000	      0.00000000
     28.88385714	     -3.25462861	     -4.80975340	     -0.41077351	      1.09441530	      0.91493296	      0.56984970	     16.38350908	      6.40142891	     -6.50816948	     28.78851247	     28.78851247	     16.42760369	    -11.62579280	     -0.73779712	     25.22050305	    -14.66098367	      4.34691711	     63.43386913	     63.43386913	      5.43395099	    -17.88244478	      5.18237392	    -10.65807646	      6.14407063	     -1.35412239	      5.45668855	    -16.17060553	     -6.89736882	     43.54244656	     44.43758603	      0.00000000	      0.00000000	     16.11592073	    -10.64323668	      0.57215626	     42.31024181	     44.86212664	      0.00000000	      0.00000000
     28.90578571	     -2.90570909	     -4.91792892	      0.52291084	      1.09309795	      0.91183236	      0.57164587	     16.76856838	      6.66797699	     -6.55246772	     30.57233538	     30.57233538	     17.30130606	    -13.36369704	      0.00731328	     27.40898054	    -14.41958453	      5.63301521	     65.88759715	     65.88759715	      6.10029957	    -18.54073558	      9.31416321	    -11.04379240	      5.87683690	     -1.32792284	      8.29672313	    -16.23284150	     -7.23739275	     46.18299662	     44.45331320	      0.00000000	      0.00000000	     13.95104268	     -9.83053429	      0.87218792	     37.11709221	     44.94399417	      0.00000000	      0.00000000
     28.92771429	     -2.57563512	     -5.05688208	      1.46054779	      1.09166007	      0.90898059	      0.57327476	     17.05973935	      6.94114590	     -6.73796396	     32.11608479	     32.11608479	     18.16834403	    -14.74323766	      0.92602306	     29.46282132	    -14.29947033	      6.54509916	     67.59612018	     67.59612018	      7.15724130	    -18.96413571	     13.18890488	    -11.43323681	      5.65485401	     -1.32160414	     11.29483160	    -16.29400694	     -7.60127289	     48.93512869	     44.46055758	      0.00000000	      0.00000000	     11.74180822	     -9.18391549	      1.00974563	     32.35111155	     45.02384119	      0.00000000	      0.00000000
     28.94964286	     -2.36278355	     -5.20771891	      2.42687518	      1.09011620	      0.90643960	      0.57467064	     17.31476536	      7.18148373	     -7.09488554	     33.30442954	     33.30442954	     18.68201119	    -15.96422071	      1.14604632	     31.36965597	    -14.35027536	      7.00145986	     68.28798193	     68.28798193	      7.70859687	    -19.26835356	     14.25637894	    -11.69817844	      5.47074655	     -1.65851748	     14.67313947	    -16.08761633	     -7.96014023	     51.41496489	     44.42105483	      0.00000000	      0.00000000	      8.75875737	     -8.99492425	      1.19109344	     29.67642627	     44.98232668	      0.00000000	      0.00000000
     28.97157143	     -2.13192557	     -5.33123262	      3.34305168	      1.08836202	      0.90465323	      0.57562955	     17.40401985	      7.35731479	     -7.48185559	     34.22728768	     34.22728768	     19.64151587	    -16.54450817	      2.79678105	     33.09857988	    -14.20461497	      7.34730268	     68.32511465	     68.32511465	      9.85654023	    -19.39146415	     18.80288624	    -12.04993323	      5.30345470	     -1.19305978	     17.39827584	    -16.57418735	     -8.00841088	     54.78975858	     44.38738299	      0.00000000	      0.00000000	      7.05744352	     -8.42097253	      1.30605632	     25.43202101	     45.04782517	      0.00000000	      0.00000000
     28.99350000	     -2.06182083	     -5.41331316	      4.27115056	      1.08649248	      0.90349533	      0.57616480	     17.42727284	      7.41730804	     -8.01318924	     34.65500567	     34.65500567	     19.97122322	    -17.08531303	      3.04422063	     34.54323671	    -14.08686015	      7.30154112	     67.15145921	     67.15145921	     10.81792340	    -19.47367331	     19.09399089	    -12.20119712	      5.11330460	     -1.25553599	     20.77923963	    -16.54256291	     -8.36184990	     57.42941411	     44.33969732	      0.00000000	      0.00000000	      4.33838597	     -8.33902481	      1.38947724	     23.69297344	     45.00750993	      0.00000000	      0.00000000
     29.01542857	     -2.08623666	     -5.39137548	      5.20451098	      1.08446926	      0.90327309	      0.57609149	     17.30410728	      7.30812829	     -8.59932065	     34.63157788	     34.63157788	     20.25643358	    -17.32532578	      3.50487697	     35.67325110	    -13.68531850	      7.13300708	     65.02211120	     65.02211120	     11.88787434	    -19.49696240	     19.52275602	    -12.26339261	      4.89562029	     -1.22178830	     23.96084719	    -16.65176185	     -8.49317480	     60.54871614	     44.27029436	      0.00000000	      0.00000000	      1.82665951	     -8.29397528	      1.49673673	     22.20991447	     44.96511647	      0.00000000	      0.00000000
     29.03735714	     -2.25369645	     -5.29071677	      6.09836570	      1.08225751	      0.90379627	      0.57545458	     17.15725973	      7.06375372	     -9.19037411	     34.30333793	     34.30333793	     20.56579627	    -17.31412283	      4.42161756	     36.50590072	    -13.00701176	      6.96481989	     62.01550142	     62.01550142	     12.64070509	    -19.46940312	     19.45195490	    -12.25584211	      4.66225064	     -0.63769156	     26.32307904	    -17.57032858	     -8.05934388	     65.48895959	     44.16869157	      0.00000000	      0.00000000	     -0.45808884	     -8.30087317	      1.86920391	     21.53877072	     44.89624983	      0.00000000	      0.00000000
     29.05928571	     -2.48290595	     -5.07938599	      6.98272801	      1.07996972	      0.90525032	      0.57427298	     16.78743158	      6.66116524	     -9.82899963	     33.46424120	     33.46424120	     20.48250743	    -17.18035006	      4.59662627	     36.88965247	    -12.03634036	      6.87723807	     58.16810677	     58.16810677	     12.92757894	    -19.38325636	     19.02756425	    -12.13392877	      4.31597872	     -0.58051125	     29.68247723	    -17.67331141	     -8.19858717	     68.47696107	     44.10495754	      0.00000000	      0.00000000	     -2.75540276	     -8.37746406	      2.04651780	     20.71588410	     44.82452297	      0.00000000	      0.00000000
